<svg width="130" height="174" viewBox="0 0 130 174" fill="none" xmlns="http://www.w3.org/2000/svg">
<path d="M9.00003 150.5C11.4 150.5 12.1667 148 12.0001 147C12.2174 147.743 13.1107 155.24 12.5001 154.5C11.4936 153.281 11.0001 155.5 11.0001 157.5C11.0001 159.5 13.5001 165.5 12.5001 166C11.5001 166.5 7.00006 158.5 7.00006 157C7.00006 155.5 2.50017 153.5 1.49991 152.5C0.500214 151.5 -1.00009 149.5 0.99991 148.5C2.99991 147.5 4.50006 155 6.50006 152C7.71097 150.184 1.50003 142.5 4.50003 142.5C7.50003 142.5 6.00003 150.5 9.00003 150.5Z" fill="#9CA3AF"/>
<path d="M5.50001 97.5C5.50001 97.5 2.50001 107.5 2.00001 119.5C1.50001 131.5 8.50001 143.833 12.5 147.5C11 155.5 17.5 161.243 19.5 162.5C37 173.5 87.043 166.762 94.5 163.5C102.5 160 106.333 150.667 107 145C116 140.833 132.8 130.4 128 122C122 111.5 100.5 118 100 115C99.5 112 89.5 95 86.5 89.5C84.1 85.1 81.1667 70 80 63C81.5 57.3333 84.9 44.1 86.5 36.5C88.1 28.9 87.1667 16 86.5 10.5C83.5 14.1667 76.9 21.7 74.5 22.5C72.1 23.3 63.8333 37.5 60 44.5C58.8333 49.3333 57.6 53.5 62 31.5C66.4 9.5 63.8333 2 62 1C53 15.6667 28.5 44.5 28.5 44.5C21 45.5 14.5 60.5 13.5 63C12.8697 64.5757 7.66668 86.5 5.50001 97.5Z" stroke="#9CA3AF"/>
<path d="M59.5 79.5C59.5 84.5243 55.8674 88.5 51.5 88.5C47.1326 88.5 43.5 84.5243 43.5 79.5C43.5 74.4757 47.1326 70.5 51.5 70.5C55.8674 70.5 59.5 74.4757 59.5 79.5Z" stroke="#9CA3AF"/>
<path d="M26.5 72.5C26.5 76.4356 23.7489 79.5 20.5 79.5C17.2511 79.5 14.5 76.4356 14.5 72.5C14.5 68.5644 17.2511 65.5 20.5 65.5C23.7489 65.5 26.5 68.5644 26.5 72.5Z" stroke="#9CA3AF"/>
<circle cx="54.5" cy="81.5" r="2.5" fill="#9CA3AF"/>
<circle cx="21.5" cy="73.5" r="2.5" fill="#9CA3AF"/>
<path d="M103 164.5C103.8 162.1 103.167 158 102.5 156.5C103.35 155.867 104.368 152.628 105.5 152C107.249 151.03 114.5 166.5 115.5 168.5C116.5 170.5 113 175 113 170.5C113 166.919 109.201 162.072 108.153 160.745C108.825 162.376 107.47 169.178 107 172C106.5 175 99.9153 173.149 102.5 172C107 170 105.167 164.333 105.5 161.5C104.5 164 102.2 166.9 103 164.5Z" fill="#9CA3AF"/>
</svg>
